<mxfile host="app.diagrams.net" agent="Mozilla/5.0 (Windows NT 10.0; Win64; x64) AppleWebKit/537.36 (KHTML, like Gecko) Chrome/131.0.0.0 Safari/537.36" version="25.0.3">
  <diagram name="PÃ¡gina-1" id="n3oqPN_mnhxu3oE9vwWN">
    <mxGraphModel dx="2745" dy="1462" grid="1" gridSize="10" guides="1" tooltips="1" connect="1" arrows="1" fold="1" page="1" pageScale="1" pageWidth="827" pageHeight="1169" math="0" shadow="0">
      <root>
        <mxCell id="0" />
        <mxCell id="1" parent="0" />
        <mxCell id="ZAlYBI2UBmGH4MSheu3d-29" style="edgeStyle=orthogonalEdgeStyle;rounded=1;orthogonalLoop=1;jettySize=auto;html=1;exitX=1;exitY=0.25;exitDx=0;exitDy=0;entryX=0;entryY=0.5;entryDx=0;entryDy=0;endArrow=diamond;endFill=1;strokeWidth=3;curved=0;" parent="1" source="ZAlYBI2UBmGH4MSheu3d-26" target="ZAlYBI2UBmGH4MSheu3d-27" edge="1">
          <mxGeometry relative="1" as="geometry" />
        </mxCell>
        <mxCell id="ZAlYBI2UBmGH4MSheu3d-33" style="edgeStyle=orthogonalEdgeStyle;rounded=1;orthogonalLoop=1;jettySize=auto;html=1;exitX=0.995;exitY=0.306;exitDx=0;exitDy=0;entryX=0;entryY=0.5;entryDx=0;entryDy=0;strokeWidth=3;endArrow=block;endFill=0;sourcePerimeterSpacing=0;strokeColor=default;curved=0;exitPerimeter=0;" parent="1" source="ZAlYBI2UBmGH4MSheu3d-26" target="ZAlYBI2UBmGH4MSheu3d-32" edge="1">
          <mxGeometry relative="1" as="geometry">
            <Array as="points">
              <mxPoint x="1090" y="824" />
              <mxPoint x="1090" y="230" />
            </Array>
          </mxGeometry>
        </mxCell>
        <mxCell id="YH0yCFTqml4QWrOIWOWk-8" style="edgeStyle=orthogonalEdgeStyle;rounded=1;orthogonalLoop=1;jettySize=auto;html=1;entryX=0;entryY=0.5;entryDx=0;entryDy=0;endArrow=diamond;endFill=1;curved=0;strokeWidth=3;" parent="1" source="ZAlYBI2UBmGH4MSheu3d-26" target="YH0yCFTqml4QWrOIWOWk-5" edge="1">
          <mxGeometry relative="1" as="geometry">
            <Array as="points">
              <mxPoint x="1200" y="900" />
              <mxPoint x="1200" y="503" />
            </Array>
          </mxGeometry>
        </mxCell>
        <mxCell id="ZAlYBI2UBmGH4MSheu3d-26" value="&lt;p style=&quot;margin:0px;margin-top:4px;text-align:center;&quot;&gt;&lt;b&gt;ServiceOrderService&lt;/b&gt;&lt;/p&gt;&lt;hr size=&quot;1&quot; style=&quot;border-style:solid;&quot;&gt;&lt;p style=&quot;margin:0px;margin-left:4px;&quot;&gt;&lt;span data-lucid-content=&quot;{&amp;quot;t&amp;quot;:&amp;quot;- restTemplate: RestTemplate\n- serviceOrderRepository: ServiceOrderRepository\n- simUtill: SimUtil\n- simService: SimService\n- alertService: AlertService\n- fileRepository: FileRepository\n- customerService: CustomerService\n- headerLsm: HeaderLsm\n- wSAccessService: WsAccessService\n- reportUtil: ReportUtil\n- inventoryService: InventoryService\n- filterUtil: FilterUtil\n- httpRequestUtil: HttpRequestUtil\n- userService: UserService\n- serviceOrderUtil: ServiceOrderUtil\n- organizationService: OrganizationService\n- advacedInventoryListiningService: AdvancedInvetoryListiningService\n- mailService: MailService\n- userRepository: UserRepository\n- simcardService: SimcardService\n- customerUtil: CustomerUtil\n- clientIpAdressUtil: ClientIpAdressUtil\n- dateUtil: DateUtil\n- deviceService: DeviceService\n- lineService: LineService\n- employeService: EmployeService\n- supplierApiService: SuplierApiService\n- advancednvetoryActivationService: AdvancedInventoryActivationService\n- tipoOsService: TipoOsService\n- uiccsService: UiccsService\n- serviceOrderCache: ServiceOrderCache\n- operadoraService: OperadoraService\n- advancedInventoryReplacementeService: AdvancedInventoryReplacementService\n\n- formater: DateTimeFormatter\n\n- ENTITY_NAME: string\n\n- SERVICE_ORDER_URL: string\n\n- OS_SIMCARD_URL: string\n- CUSTOMER_NAME: string\n- LSM_PW: string\n- OPERATOR_NAME: string\n- STATUS_ID: string\n- STATUS_MNEMO: string\n- OPERATOR_CODE: string\n- IN: string\n- LINE: string\n- ICCID: string\n- DOC: string\n- SHIPPING_SLUG: string\n- FISCAL_DATA_SLUG: string\n\n- quantityIccidsFilter: int&amp;quot;,&amp;quot;m&amp;quot;:[{&amp;quot;s&amp;quot;:0,&amp;quot;n&amp;quot;:&amp;quot;s&amp;quot;,&amp;quot;v&amp;quot;:22.22222222222222,&amp;quot;e&amp;quot;:1552},{&amp;quot;s&amp;quot;:1206,&amp;quot;n&amp;quot;:&amp;quot;u&amp;quot;,&amp;quot;v&amp;quot;:true,&amp;quot;e&amp;quot;:1523}]}&quot; data-lucid-type=&quot;application/vnd.lucid.text&quot;&gt;&lt;span style=&quot;font-size:16.666666666666664px;&quot;&gt;- restTemplate: RestTemplate&lt;br&gt;&lt;/span&gt;&lt;span style=&quot;font-size:16.666666666666664px;&quot;&gt;- serviceOrderRepository: ServiceOrderRepository&lt;br&gt;&lt;/span&gt;&lt;span style=&quot;font-size:16.666666666666664px;&quot;&gt;- simUtill: SimUtil&lt;br&gt;&lt;/span&gt;&lt;span style=&quot;font-size:16.666666666666664px;&quot;&gt;- simService: SimService&lt;br&gt;&lt;/span&gt;&lt;span style=&quot;font-size:16.666666666666664px;&quot;&gt;- alertService: AlertService&lt;br&gt;&lt;/span&gt;&lt;span style=&quot;font-size:16.666666666666664px;&quot;&gt;- fileRepository: FileRepository&lt;br&gt;&lt;/span&gt;&lt;span style=&quot;font-size:16.666666666666664px;&quot;&gt;- customerService: CustomerService&lt;br&gt;&lt;/span&gt;&lt;span style=&quot;font-size:16.666666666666664px;&quot;&gt;- headerLsm: HeaderLsm&lt;br&gt;&lt;/span&gt;&lt;span style=&quot;font-size:16.666666666666664px;&quot;&gt;- wSAccessService: WsAccessService&lt;br&gt;&lt;/span&gt;&lt;span style=&quot;font-size:16.666666666666664px;&quot;&gt;- reportUtil: ReportUtil&lt;br&gt;&lt;/span&gt;&lt;span style=&quot;font-size:16.666666666666664px;&quot;&gt;- inventoryService: InventoryService&lt;br&gt;&lt;/span&gt;&lt;span style=&quot;font-size:16.666666666666664px;&quot;&gt;- filterUtil: FilterUtil&lt;br&gt;&lt;/span&gt;&lt;span style=&quot;font-size:16.666666666666664px;&quot;&gt;- httpRequestUtil: HttpRequestUtil&lt;br&gt;&lt;/span&gt;&lt;span style=&quot;font-size:16.666666666666664px;&quot;&gt;- userService: UserService&lt;br&gt;&lt;/span&gt;&lt;span style=&quot;font-size:16.666666666666664px;&quot;&gt;- serviceOrderUtil: ServiceOrderUtil&lt;br&gt;&lt;/span&gt;&lt;span style=&quot;font-size:16.666666666666664px;&quot;&gt;- organizationService: OrganizationService&lt;br&gt;&lt;/span&gt;&lt;span style=&quot;font-size:16.666666666666664px;&quot;&gt;- advacedInventoryListiningService: AdvancedInvetoryListiningService&lt;br&gt;&lt;/span&gt;&lt;span style=&quot;font-size:16.666666666666664px;&quot;&gt;- mailService: MailService&lt;br&gt;&lt;/span&gt;&lt;span style=&quot;font-size:16.666666666666664px;&quot;&gt;- userRepository: UserRepository&lt;br&gt;&lt;/span&gt;&lt;span style=&quot;font-size:16.666666666666664px;&quot;&gt;- simcardService: SimcardService&lt;br&gt;&lt;/span&gt;&lt;span style=&quot;font-size:16.666666666666664px;&quot;&gt;- customerUtil: CustomerUtil&lt;br&gt;&lt;/span&gt;&lt;span style=&quot;font-size:16.666666666666664px;&quot;&gt;- clientIpAdressUtil: ClientIpAdressUtil&lt;br&gt;&lt;/span&gt;&lt;span style=&quot;font-size:16.666666666666664px;&quot;&gt;- dateUtil: DateUtil&lt;br&gt;&lt;/span&gt;&lt;span style=&quot;font-size:16.666666666666664px;&quot;&gt;- deviceService: DeviceService&lt;br&gt;&lt;/span&gt;&lt;span style=&quot;font-size:16.666666666666664px;&quot;&gt;- lineService: LineService&lt;br&gt;&lt;/span&gt;&lt;span style=&quot;font-size:16.666666666666664px;&quot;&gt;- employeService: EmployeService&lt;br&gt;&lt;/span&gt;&lt;span style=&quot;font-size:16.666666666666664px;&quot;&gt;- supplierApiService: SuplierApiService&lt;br&gt;&lt;/span&gt;&lt;span style=&quot;font-size:16.666666666666664px;&quot;&gt;- advancednvetoryActivationService: AdvancedInventoryActivationService&lt;br&gt;&lt;/span&gt;&lt;span style=&quot;font-size:16.666666666666664px;&quot;&gt;- tipoOsService: TipoOsService&lt;br&gt;&lt;/span&gt;&lt;span style=&quot;font-size:16.666666666666664px;&quot;&gt;- uiccsService: UiccsService&lt;br&gt;&lt;/span&gt;&lt;span style=&quot;font-size:16.666666666666664px;&quot;&gt;- serviceOrderCache: ServiceOrderCache&lt;br&gt;&lt;/span&gt;&lt;span style=&quot;font-size:16.666666666666664px;&quot;&gt;- operadoraService: OperadoraService&lt;br&gt;&lt;/span&gt;&lt;span style=&quot;font-size:16.666666666666664px;&quot;&gt;- advancedInventoryReplacementeService: AdvancedInventoryReplacementService&lt;br&gt;&lt;/span&gt;&lt;span style=&quot;font-size:16.666666666666664px;&quot;&gt;&lt;br&gt;&lt;/span&gt;&lt;span style=&quot;font-size:16.666666666666664px;&quot;&gt;- formater: DateTimeFormatter&lt;br&gt;&lt;/span&gt;&lt;span style=&quot;font-size:16.666666666666664px;&quot;&gt;&lt;br&gt;&lt;/span&gt;&lt;span style=&quot;text-decoration-line: underline; font-size: 16.6667px;&quot;&gt;- ENTITY_NAME: string&lt;br&gt;&lt;/span&gt;&lt;span style=&quot;text-decoration-line: underline; font-size: 16.6667px;&quot;&gt;&lt;br&gt;&lt;/span&gt;&lt;span style=&quot;text-decoration-line: underline; font-size: 16.6667px;&quot;&gt;- SERVICE_ORDER_URL: string&lt;br&gt;&lt;/span&gt;&lt;span style=&quot;text-decoration-line: underline; font-size: 16.6667px;&quot;&gt;&lt;br&gt;&lt;/span&gt;&lt;span style=&quot;text-decoration-line: underline; font-size: 16.6667px;&quot;&gt;- OS_SIMCARD_URL: string&lt;br&gt;&lt;/span&gt;&lt;span style=&quot;text-decoration-line: underline; font-size: 16.6667px;&quot;&gt;- CUSTOMER_NAME: string&lt;br&gt;&lt;/span&gt;&lt;span style=&quot;text-decoration-line: underline; font-size: 16.6667px;&quot;&gt;- LSM_PW: string&lt;br&gt;&lt;/span&gt;&lt;span style=&quot;text-decoration-line: underline; font-size: 16.6667px;&quot;&gt;- OPERATOR_NAME: string&lt;br&gt;&lt;/span&gt;&lt;span style=&quot;text-decoration-line: underline; font-size: 16.6667px;&quot;&gt;- STATUS_ID: string&lt;br&gt;&lt;/span&gt;&lt;span style=&quot;text-decoration-line: underline; font-size: 16.6667px;&quot;&gt;- STATUS_MNEMO: string&lt;br&gt;&lt;/span&gt;&lt;span style=&quot;text-decoration-line: underline; font-size: 16.6667px;&quot;&gt;- OPERATOR_CODE: string&lt;br&gt;&lt;/span&gt;&lt;span style=&quot;text-decoration-line: underline; font-size: 16.6667px;&quot;&gt;- IN: string&lt;br&gt;&lt;/span&gt;&lt;span style=&quot;text-decoration-line: underline; font-size: 16.6667px;&quot;&gt;- LINE: string&lt;br&gt;&lt;/span&gt;&lt;span style=&quot;text-decoration-line: underline; font-size: 16.6667px;&quot;&gt;- ICCID: string&lt;br&gt;&lt;/span&gt;&lt;span style=&quot;text-decoration-line: underline; font-size: 16.6667px;&quot;&gt;- DOC: string&lt;br&gt;&lt;/span&gt;&lt;span style=&quot;text-decoration-line: underline; font-size: 16.6667px;&quot;&gt;- SHIPPING_SLUG: string&lt;br&gt;&lt;/span&gt;&lt;span style=&quot;text-decoration-line: underline; font-size: 16.6667px;&quot;&gt;- FISCAL_DATA_SLUG: string&lt;/span&gt;&lt;span style=&quot;font-size:16.666666666666664px;&quot;&gt;&lt;br&gt;&lt;/span&gt;&lt;span style=&quot;font-size:16.666666666666664px;&quot;&gt;&lt;br&gt;&lt;/span&gt;&lt;span style=&quot;font-size:16.666666666666664px;&quot;&gt;- quantityIccidsFilter: int&lt;/span&gt;&lt;/span&gt;&lt;/p&gt;&lt;hr size=&quot;1&quot; style=&quot;border-style:solid;&quot;&gt;&lt;p style=&quot;margin:0px;margin-left:4px;&quot;&gt;+ method(): Type&lt;/p&gt;" style="verticalAlign=top;align=left;overflow=fill;html=1;whiteSpace=wrap;" parent="1" vertex="1">
          <mxGeometry x="140" y="460" width="660" height="1190" as="geometry" />
        </mxCell>
        <mxCell id="ZAlYBI2UBmGH4MSheu3d-27" value="&lt;p style=&quot;margin:0px;margin-top:4px;text-align:center;&quot;&gt;&lt;b&gt;RestTemplate&lt;/b&gt;&lt;/p&gt;&lt;hr size=&quot;1&quot; style=&quot;border-style:solid;&quot;&gt;&lt;div style=&quot;height:2px;&quot;&gt;&amp;nbsp;// Classe da biblioteca &lt;b&gt;Spring Web&lt;/b&gt;&amp;nbsp;que trabalha com requisiÃ§Ãµes Http. Ela facilita o trabalho com elas.&lt;/div&gt;" style="verticalAlign=top;align=left;overflow=fill;html=1;whiteSpace=wrap;" parent="1" vertex="1">
          <mxGeometry x="1110" y="30" width="570" height="80" as="geometry" />
        </mxCell>
        <mxCell id="ZAlYBI2UBmGH4MSheu3d-35" style="edgeStyle=orthogonalEdgeStyle;rounded=1;orthogonalLoop=1;jettySize=auto;html=1;entryX=0;entryY=0.5;entryDx=0;entryDy=0;strokeWidth=3;endArrow=block;endFill=0;curved=0;" parent="1" source="ZAlYBI2UBmGH4MSheu3d-32" target="ZAlYBI2UBmGH4MSheu3d-34" edge="1">
          <mxGeometry relative="1" as="geometry" />
        </mxCell>
        <mxCell id="ZAlYBI2UBmGH4MSheu3d-37" style="edgeStyle=orthogonalEdgeStyle;rounded=1;orthogonalLoop=1;jettySize=auto;html=1;entryX=0;entryY=0.5;entryDx=0;entryDy=0;strokeWidth=3;endArrow=block;endFill=0;curved=0;" parent="1" source="ZAlYBI2UBmGH4MSheu3d-32" target="ZAlYBI2UBmGH4MSheu3d-36" edge="1">
          <mxGeometry relative="1" as="geometry" />
        </mxCell>
        <mxCell id="ZAlYBI2UBmGH4MSheu3d-32" value="&lt;p style=&quot;margin:0px;margin-top:4px;text-align:center;&quot;&gt;&lt;i&gt;&amp;lt;&amp;lt;Interface&amp;gt;&amp;gt;&lt;/i&gt;&lt;br&gt;&lt;b&gt;ServiceOrderRepository&lt;/b&gt;&lt;/p&gt;&lt;hr size=&quot;1&quot; style=&quot;border-style:solid;&quot;&gt;&lt;p style=&quot;margin:0px;margin-left:4px;&quot;&gt;&lt;span data-lucid-content=&quot;{&amp;quot;t&amp;quot;:&amp;quot;+ findAllByCodigo(code: String): List&lt;ServiceOrder&gt; \n// Vai fazer uma consulta que busca todos os documentos da coleÃ§Ã£o ServiceOrder pelo campo codigo que seja igual ao valor fornecido em code \n\n// O Spring Data MongoDB vai gerar a implementaÃ§Ã£o dos mÃ©todos de forma automÃ¡tica pelo nome do mÃ©todo&amp;quot;,&amp;quot;m&amp;quot;:[{&amp;quot;s&amp;quot;:0,&amp;quot;n&amp;quot;:&amp;quot;c&amp;quot;,&amp;quot;v&amp;quot;:&amp;quot;#333333ff&amp;quot;,&amp;quot;e&amp;quot;:53},{&amp;quot;s&amp;quot;:53,&amp;quot;n&amp;quot;:&amp;quot;fc&amp;quot;,&amp;quot;v&amp;quot;:&amp;quot;Oblique&amp;quot;,&amp;quot;e&amp;quot;:120},{&amp;quot;s&amp;quot;:53,&amp;quot;n&amp;quot;:&amp;quot;i&amp;quot;,&amp;quot;v&amp;quot;:true,&amp;quot;e&amp;quot;:192},{&amp;quot;s&amp;quot;:53,&amp;quot;n&amp;quot;:&amp;quot;fid&amp;quot;,&amp;quot;v&amp;quot;:8,&amp;quot;e&amp;quot;:120},{&amp;quot;s&amp;quot;:53,&amp;quot;n&amp;quot;:&amp;quot;c&amp;quot;,&amp;quot;v&amp;quot;:&amp;quot;#5e5e5eff&amp;quot;,&amp;quot;e&amp;quot;:297},{&amp;quot;s&amp;quot;:120,&amp;quot;n&amp;quot;:&amp;quot;fc&amp;quot;,&amp;quot;v&amp;quot;:&amp;quot;Bold Oblique&amp;quot;,&amp;quot;e&amp;quot;:132},{&amp;quot;s&amp;quot;:120,&amp;quot;n&amp;quot;:&amp;quot;b&amp;quot;,&amp;quot;v&amp;quot;:true,&amp;quot;e&amp;quot;:132},{&amp;quot;s&amp;quot;:120,&amp;quot;n&amp;quot;:&amp;quot;fid&amp;quot;,&amp;quot;v&amp;quot;:7,&amp;quot;e&amp;quot;:132},{&amp;quot;s&amp;quot;:132,&amp;quot;n&amp;quot;:&amp;quot;fc&amp;quot;,&amp;quot;v&amp;quot;:&amp;quot;Oblique&amp;quot;,&amp;quot;e&amp;quot;:144},{&amp;quot;s&amp;quot;:132,&amp;quot;n&amp;quot;:&amp;quot;fid&amp;quot;,&amp;quot;v&amp;quot;:8,&amp;quot;e&amp;quot;:144},{&amp;quot;s&amp;quot;:144,&amp;quot;n&amp;quot;:&amp;quot;fc&amp;quot;,&amp;quot;v&amp;quot;:&amp;quot;Bold Oblique&amp;quot;,&amp;quot;e&amp;quot;:150},{&amp;quot;s&amp;quot;:144,&amp;quot;n&amp;quot;:&amp;quot;b&amp;quot;,&amp;quot;v&amp;quot;:true,&amp;quot;e&amp;quot;:150},{&amp;quot;s&amp;quot;:144,&amp;quot;n&amp;quot;:&amp;quot;fid&amp;quot;,&amp;quot;v&amp;quot;:7,&amp;quot;e&amp;quot;:150},{&amp;quot;s&amp;quot;:150,&amp;quot;n&amp;quot;:&amp;quot;fc&amp;quot;,&amp;quot;v&amp;quot;:&amp;quot;Oblique&amp;quot;,&amp;quot;e&amp;quot;:188},{&amp;quot;s&amp;quot;:150,&amp;quot;n&amp;quot;:&amp;quot;fid&amp;quot;,&amp;quot;v&amp;quot;:8,&amp;quot;e&amp;quot;:188},{&amp;quot;s&amp;quot;:188,&amp;quot;n&amp;quot;:&amp;quot;fc&amp;quot;,&amp;quot;v&amp;quot;:&amp;quot;Bold Oblique&amp;quot;,&amp;quot;e&amp;quot;:192},{&amp;quot;s&amp;quot;:188,&amp;quot;n&amp;quot;:&amp;quot;b&amp;quot;,&amp;quot;v&amp;quot;:true,&amp;quot;e&amp;quot;:192},{&amp;quot;s&amp;quot;:188,&amp;quot;n&amp;quot;:&amp;quot;fid&amp;quot;,&amp;quot;v&amp;quot;:7,&amp;quot;e&amp;quot;:192},{&amp;quot;s&amp;quot;:200,&amp;quot;n&amp;quot;:&amp;quot;fc&amp;quot;,&amp;quot;v&amp;quot;:&amp;quot;Bold&amp;quot;,&amp;quot;e&amp;quot;:219},{&amp;quot;s&amp;quot;:200,&amp;quot;n&amp;quot;:&amp;quot;b&amp;quot;,&amp;quot;v&amp;quot;:true,&amp;quot;e&amp;quot;:219},{&amp;quot;s&amp;quot;:200,&amp;quot;n&amp;quot;:&amp;quot;fid&amp;quot;,&amp;quot;v&amp;quot;:5,&amp;quot;e&amp;quot;:219}]}&quot; data-lucid-type=&quot;application/vnd.lucid.text&quot;&gt;&lt;span style=&quot;color:#333333;&quot;&gt;+ findAllByCodigo(code: String): List&amp;lt;ServiceOrder&amp;gt; &lt;br&gt;&lt;/span&gt;&lt;span style=&quot;color:#5e5e5e;font-style:italic;&quot;&gt;// Vai fazer uma consulta que busca todos os documentos da coleÃ§Ã£o &lt;/span&gt;&lt;span style=&quot;font-weight:bold;color:#5e5e5e;font-style:italic;&quot;&gt;ServiceOrder&lt;/span&gt;&lt;span style=&quot;color:#5e5e5e;font-style:italic;&quot;&gt; pelo campo &lt;/span&gt;&lt;span style=&quot;font-weight:bold;color:#5e5e5e;font-style:italic;&quot;&gt;codigo&lt;/span&gt;&lt;span style=&quot;color:#5e5e5e;font-style:italic;&quot;&gt; que seja igual ao valor fornecido em &lt;/span&gt;&lt;span style=&quot;font-weight:bold;color:#5e5e5e;font-style:italic;&quot;&gt;code&lt;/span&gt;&lt;span style=&quot;color:#5e5e5e;&quot;&gt; &lt;br&gt;&lt;/span&gt;&lt;span style=&quot;color:#5e5e5e;&quot;&gt;&lt;br&gt;&lt;/span&gt;&lt;i&gt;&lt;span style=&quot;color:#5e5e5e;&quot;&gt;// O &lt;/span&gt;&lt;span style=&quot;font-weight:bold;color:#5e5e5e;&quot;&gt;Spring Data MongoDB&lt;/span&gt;&lt;span style=&quot;color:#5e5e5e;&quot;&gt; vai gerar a implementaÃ§Ã£o dos mÃ©todos de forma automÃ¡tica pelo nome do mÃ©todo&lt;/span&gt;&lt;/i&gt;&lt;/span&gt;&lt;/p&gt;" style="verticalAlign=top;align=left;overflow=fill;html=1;whiteSpace=wrap;" parent="1" vertex="1">
          <mxGeometry x="1480" y="150" width="410" height="160" as="geometry" />
        </mxCell>
        <mxCell id="ZAlYBI2UBmGH4MSheu3d-34" value="&lt;p style=&quot;margin:0px;margin-top:4px;text-align:center;&quot;&gt;&lt;i&gt;&amp;lt;&amp;lt;Interface&amp;gt;&amp;gt;&lt;/i&gt;&lt;br&gt;&lt;b&gt;MongoRepository &amp;lt;ServiceOrder, Integer&amp;gt;&lt;/b&gt;&lt;/p&gt;&lt;hr size=&quot;1&quot; style=&quot;border-style:solid;&quot;&gt;&lt;p style=&quot;margin:0px;margin-left:4px;&quot;&gt;&lt;span data-lucid-content=&quot;{&amp;quot;t&amp;quot;:&amp;quot;// Interface do Spring Data MongoDB que fornece operaÃ§Ãµes de CRUD para a entidade ServiceOrder&amp;quot;,&amp;quot;m&amp;quot;:[{&amp;quot;s&amp;quot;:3,&amp;quot;n&amp;quot;:&amp;quot;b&amp;quot;,&amp;quot;v&amp;quot;:true,&amp;quot;e&amp;quot;:12},{&amp;quot;s&amp;quot;:3,&amp;quot;n&amp;quot;:&amp;quot;fc&amp;quot;,&amp;quot;v&amp;quot;:&amp;quot;Bold&amp;quot;,&amp;quot;e&amp;quot;:12},{&amp;quot;s&amp;quot;:3,&amp;quot;n&amp;quot;:&amp;quot;fid&amp;quot;,&amp;quot;v&amp;quot;:5,&amp;quot;e&amp;quot;:12},{&amp;quot;s&amp;quot;:16,&amp;quot;n&amp;quot;:&amp;quot;b&amp;quot;,&amp;quot;v&amp;quot;:true,&amp;quot;e&amp;quot;:35},{&amp;quot;s&amp;quot;:16,&amp;quot;n&amp;quot;:&amp;quot;fc&amp;quot;,&amp;quot;v&amp;quot;:&amp;quot;Bold&amp;quot;,&amp;quot;e&amp;quot;:35},{&amp;quot;s&amp;quot;:16,&amp;quot;n&amp;quot;:&amp;quot;fid&amp;quot;,&amp;quot;v&amp;quot;:5,&amp;quot;e&amp;quot;:35},{&amp;quot;s&amp;quot;:61,&amp;quot;n&amp;quot;:&amp;quot;b&amp;quot;,&amp;quot;v&amp;quot;:true,&amp;quot;e&amp;quot;:65},{&amp;quot;s&amp;quot;:61,&amp;quot;n&amp;quot;:&amp;quot;fc&amp;quot;,&amp;quot;v&amp;quot;:&amp;quot;Bold&amp;quot;,&amp;quot;e&amp;quot;:65},{&amp;quot;s&amp;quot;:61,&amp;quot;n&amp;quot;:&amp;quot;fid&amp;quot;,&amp;quot;v&amp;quot;:5,&amp;quot;e&amp;quot;:65},{&amp;quot;s&amp;quot;:82,&amp;quot;n&amp;quot;:&amp;quot;b&amp;quot;,&amp;quot;v&amp;quot;:true,&amp;quot;e&amp;quot;:94},{&amp;quot;s&amp;quot;:82,&amp;quot;n&amp;quot;:&amp;quot;fc&amp;quot;,&amp;quot;v&amp;quot;:&amp;quot;Bold&amp;quot;,&amp;quot;e&amp;quot;:94},{&amp;quot;s&amp;quot;:82,&amp;quot;n&amp;quot;:&amp;quot;fid&amp;quot;,&amp;quot;v&amp;quot;:5,&amp;quot;e&amp;quot;:94},{&amp;quot;s&amp;quot;:0,&amp;quot;n&amp;quot;:&amp;quot;c&amp;quot;,&amp;quot;v&amp;quot;:&amp;quot;#5e5e5eff&amp;quot;,&amp;quot;e&amp;quot;:94}]}&quot; data-lucid-type=&quot;application/vnd.lucid.text&quot;&gt;&lt;i&gt;&lt;font color=&quot;#5e5e5e&quot;&gt;// &lt;span style=&quot;font-weight: bold;&quot;&gt;Interface&lt;/span&gt; do &lt;span style=&quot;font-weight: bold;&quot;&gt;Spring Data MongoDB&lt;/span&gt; que fornece operaÃ§Ãµes de &lt;span style=&quot;font-weight: bold;&quot;&gt;CRUD&lt;/span&gt; para a entidade &lt;span style=&quot;font-weight: bold;&quot;&gt;ServiceOrder&lt;/span&gt;&lt;/font&gt;&lt;/i&gt;&lt;/span&gt;&lt;/p&gt;" style="verticalAlign=top;align=left;overflow=fill;html=1;whiteSpace=wrap;" parent="1" vertex="1">
          <mxGeometry x="2080" y="20" width="570" height="100" as="geometry" />
        </mxCell>
        <mxCell id="ZAlYBI2UBmGH4MSheu3d-36" value="&lt;p style=&quot;margin:0px;margin-top:4px;text-align:center;&quot;&gt;&lt;i&gt;&amp;lt;&amp;lt;Interface&amp;gt;&amp;gt;&lt;/i&gt;&lt;br&gt;&lt;b&gt;ServiceOrderCustom&lt;/b&gt;&lt;/p&gt;&lt;hr size=&quot;1&quot; style=&quot;border-style:solid;&quot;&gt;&lt;p style=&quot;margin:0px;margin-left:4px;&quot;&gt;&lt;span data-lucid-content=&quot;{&amp;quot;t&amp;quot;:&amp;quot;// Interface que define mÃ©todos que nÃ£o sÃ£o definidos no MongoRepository para manipulaÃ§Ã£o dos dados no MongoDB\n\n// Esses mÃ©todos estÃ£o definidos no ServiceOrderRepositoryImpl.java\n\n+ updateSingleSelectionByServiceOrderId(serviceOrderId: int, simcards: List&lt;String&gt;)\n+ updateSingleAssociationByServiceOrderId(serviceOrderId: int, simcards: List&lt;String&gt;)\n+ cleanSingleSelectionByServiceOrderId(serviceOrderId: int, simcards: List&lt;String&gt;)\n\n+updateDoubleSelectionByServiceOrderId(serviceOrderId: int, simcardsExisting: List&lt;String&gt;, simcardsReplacers: List&lt;String&gt;)\n+updateDoubleAssociationByServiceOrderId(serviceOrderId: int, simcardsExisting: List&lt;String&gt;, simcardsReplacers: List&lt;String&gt;)\n+cleanDoubleSelectionByServiceOrderId(serviceOrderId: int, simcardsExisting: List&lt;String&gt;, simcardsReplacers: List&lt;String&gt;)\n\n+ saveTypeOfSelection(serviceOrderId: int, typeOfSelection: String)\n\n+ removeIccidsFromSelectionAndAssociated(serviceOrderId: int, iccids: List&lt;String&gt;)&amp;quot;,&amp;quot;m&amp;quot;:[{&amp;quot;s&amp;quot;:0,&amp;quot;n&amp;quot;:&amp;quot;c&amp;quot;,&amp;quot;v&amp;quot;:&amp;quot;#5e5e5eff&amp;quot;,&amp;quot;e&amp;quot;:179},{&amp;quot;s&amp;quot;:3,&amp;quot;n&amp;quot;:&amp;quot;fc&amp;quot;,&amp;quot;v&amp;quot;:&amp;quot;Bold&amp;quot;,&amp;quot;e&amp;quot;:12},{&amp;quot;s&amp;quot;:3,&amp;quot;n&amp;quot;:&amp;quot;b&amp;quot;,&amp;quot;v&amp;quot;:true,&amp;quot;e&amp;quot;:12},{&amp;quot;s&amp;quot;:3,&amp;quot;n&amp;quot;:&amp;quot;fid&amp;quot;,&amp;quot;v&amp;quot;:5,&amp;quot;e&amp;quot;:12},{&amp;quot;s&amp;quot;:57,&amp;quot;n&amp;quot;:&amp;quot;fc&amp;quot;,&amp;quot;v&amp;quot;:&amp;quot;Bold&amp;quot;,&amp;quot;e&amp;quot;:72},{&amp;quot;s&amp;quot;:57,&amp;quot;n&amp;quot;:&amp;quot;b&amp;quot;,&amp;quot;v&amp;quot;:true,&amp;quot;e&amp;quot;:72},{&amp;quot;s&amp;quot;:57,&amp;quot;n&amp;quot;:&amp;quot;fid&amp;quot;,&amp;quot;v&amp;quot;:5,&amp;quot;e&amp;quot;:72},{&amp;quot;s&amp;quot;:103,&amp;quot;n&amp;quot;:&amp;quot;fc&amp;quot;,&amp;quot;v&amp;quot;:&amp;quot;Bold&amp;quot;,&amp;quot;e&amp;quot;:112},{&amp;quot;s&amp;quot;:103,&amp;quot;n&amp;quot;:&amp;quot;b&amp;quot;,&amp;quot;v&amp;quot;:true,&amp;quot;e&amp;quot;:112},{&amp;quot;s&amp;quot;:103,&amp;quot;n&amp;quot;:&amp;quot;fid&amp;quot;,&amp;quot;v&amp;quot;:5,&amp;quot;e&amp;quot;:112},{&amp;quot;s&amp;quot;:112,&amp;quot;n&amp;quot;:&amp;quot;fc&amp;quot;,&amp;quot;v&amp;quot;:&amp;quot;Regular&amp;quot;,&amp;quot;e&amp;quot;:179},{&amp;quot;s&amp;quot;:112,&amp;quot;n&amp;quot;:&amp;quot;fid&amp;quot;,&amp;quot;v&amp;quot;:2,&amp;quot;e&amp;quot;:179},{&amp;quot;s&amp;quot;:179,&amp;quot;n&amp;quot;:&amp;quot;c&amp;quot;,&amp;quot;v&amp;quot;:&amp;quot;#333333ff&amp;quot;,&amp;quot;e&amp;quot;:967}]}&quot; data-lucid-type=&quot;application/vnd.lucid.text&quot;&gt;&lt;i&gt;&lt;font color=&quot;#5e5e5e&quot;&gt;// &lt;span style=&quot;font-weight: bold;&quot;&gt;Interface&lt;/span&gt; que define mÃ©todos que nÃ£o sÃ£o definidos no &lt;span style=&quot;font-weight: bold;&quot;&gt;MongoRepository&lt;/span&gt; para manipulaÃ§Ã£o dos dados no &lt;span style=&quot;font-weight: bold;&quot;&gt;MongoDB&lt;br&gt;&lt;/span&gt;&lt;span style=&quot;font-weight: bold;&quot;&gt;&lt;br&gt;&lt;/span&gt;// Esses mÃ©todos estÃ£o definidos no &lt;a style=&quot;&quot; href=&quot;https://app.diagrams.net/#HGiovanniMendesC%2Fdiagrama-classes-LSM%2Fmain%2FServiceOrderRepositoryImpl.drawio#%7B%22pageId%22%3A%22wG_xQLOSolFc4w-CjNkV%22%7D&quot;&gt;ServiceOrderRepositoryImpl.java&lt;/a&gt;&lt;/font&gt;&lt;/i&gt;&lt;span style=&quot;color:#333333;&quot;&gt;&lt;br&gt;&lt;/span&gt;&lt;span style=&quot;color:#333333;&quot;&gt;&lt;br&gt;&lt;/span&gt;&lt;font color=&quot;#333333&quot;&gt;+ updateSingleSelectionByServiceOrderId(serviceOrderId: int, simcards: List&amp;lt;String&amp;gt;) &lt;/font&gt;&lt;i style=&quot;&quot;&gt;&lt;font color=&quot;#5e5e5e&quot;&gt;// Atualiza os Simcards selecionados para a Ordem de ServiÃ§o.&lt;br&gt;&lt;/font&gt;&lt;/i&gt;&lt;span style=&quot;color:#333333;&quot;&gt;+ updateSingleAssociationByServiceOrderId(serviceOrderId: int, simcards: List&amp;lt;String&amp;gt;)&lt;br&gt;&lt;/span&gt;&lt;span style=&quot;color:#333333;&quot;&gt;+ cleanSingleSelectionByServiceOrderId(serviceOrderId: int, simcards: List&amp;lt;String&amp;gt;)&lt;br&gt;&lt;/span&gt;&lt;span style=&quot;color:#333333;&quot;&gt;&lt;br&gt;&lt;/span&gt;&lt;span style=&quot;color:#333333;&quot;&gt;+ updateDoubleSelectionByServiceOrderId(serviceOrderId: int, simcardsExisting: List&amp;lt;String&amp;gt;, simcardsReplacers: List&amp;lt;String&amp;gt;)&lt;br&gt;&lt;/span&gt;&lt;span style=&quot;color:#333333;&quot;&gt;+ updateDoubleAssociationByServiceOrderId(serviceOrderId: int, simcardsExisting: List&amp;lt;String&amp;gt;, simcardsReplacers: List&amp;lt;String&amp;gt;)&lt;br&gt;&lt;/span&gt;&lt;span style=&quot;color:#333333;&quot;&gt;+ cleanDoubleSelectionByServiceOrderId(serviceOrderId: int, simcardsExisting: List&amp;lt;String&amp;gt;, simcardsReplacers: List&amp;lt;String&amp;gt;)&lt;br&gt;&lt;/span&gt;&lt;span style=&quot;color:#333333;&quot;&gt;&lt;br&gt;&lt;/span&gt;&lt;span style=&quot;color:#333333;&quot;&gt;+ saveTypeOfSelection(serviceOrderId: int, typeOfSelection: String)&lt;br&gt;&lt;/span&gt;&lt;span style=&quot;color:#333333;&quot;&gt;&lt;br&gt;&lt;/span&gt;&lt;span style=&quot;color:#333333;&quot;&gt;+ removeIccidsFromSelectionAndAssociated(serviceOrderId: int, iccids: List&amp;lt;String&amp;gt;)&lt;/span&gt;&lt;/span&gt;&lt;/p&gt;" style="verticalAlign=top;align=left;overflow=fill;html=1;whiteSpace=wrap;strokeColor=default;" parent="1" vertex="1">
          <mxGeometry x="2080" y="200" width="900" height="280" as="geometry" />
        </mxCell>
        <mxCell id="YH0yCFTqml4QWrOIWOWk-4" value="SimUtil" style="swimlane;fontStyle=1;align=center;verticalAlign=top;childLayout=stackLayout;horizontal=1;startSize=26;horizontalStack=0;resizeParent=1;resizeParentMax=0;resizeLast=0;collapsible=1;marginBottom=0;whiteSpace=wrap;html=1;" parent="1" vertex="1">
          <mxGeometry x="1290" y="410" width="750" height="160" as="geometry" />
        </mxCell>
        <mxCell id="YH0yCFTqml4QWrOIWOWk-5" value="&lt;font color=&quot;#5e5e5e&quot;&gt;&lt;i&gt;&amp;nbsp;// O SimUtil fornece diversos mÃ©todos que facilitam o trabalho com Sims.&lt;/i&gt;&lt;/font&gt;&lt;div&gt;&lt;font color=&quot;#5e5e5e&quot;&gt;&lt;i&gt;&lt;br&gt;&lt;/i&gt;&lt;/font&gt;&lt;div&gt;&lt;font color=&quot;#5e5e5e&quot;&gt;&lt;i&gt;// Ela possui muitos mÃ©todos que validam a phase do sim, o iccid, o msisdn e a relaÃ§Ã£o deles com o customerId e plano de venda/compra.&lt;/i&gt;&lt;/font&gt;&lt;/div&gt;&lt;/div&gt;&lt;div&gt;&lt;font color=&quot;#5e5e5e&quot;&gt;&lt;i&gt;&lt;br&gt;&lt;/i&gt;&lt;/font&gt;&lt;/div&gt;&lt;div&gt;&lt;font color=&quot;#5e5e5e&quot;&gt;&lt;i&gt;// Para mais informaÃ§Ãµes veja o diagrama dessa classe: &lt;a href=&quot;https://app.diagrams.net/#HGiovanniMendesC%2Fdiagrama-classes-LSM%2Fmain%2FSimUtil.drawio#%7B%22pageId%22%3A%220d7h8Y_baKdkDav5c62c%22%7D&quot;&gt;SimUtil.java&lt;/a&gt;&lt;/i&gt;&lt;/font&gt;&lt;/div&gt;" style="text;strokeColor=none;fillColor=default;align=left;verticalAlign=top;spacingLeft=4;spacingRight=4;overflow=hidden;rotatable=0;points=[[0,0.5],[1,0.5]];portConstraint=eastwest;whiteSpace=wrap;html=1;" parent="YH0yCFTqml4QWrOIWOWk-4" vertex="1">
          <mxGeometry y="26" width="750" height="134" as="geometry" />
        </mxCell>
      </root>
    </mxGraphModel>
  </diagram>
</mxfile>
